# xmcd
#
# Track frame offsets: 
#        150
#        27877
#        47248
#        70179
#        89621
#        102647
#        122969
#        141984
#        157369
#        181332
#        204367
#        222728
#        238969
#        264967
#        291696
#
# Disc length: 4071 seconds
#
# Revision: 0
# Processed by: cddbd v1.5.2PL0 Copyright (c) Steve Scherf et al.
# Submitted via: ExactAudioCopy v1.0b3
#
DISCID=fd0fe50f
DTITLE=Richard Koechli - Searching For The Blues
DYEAR=2015
DGENRE=Blues
TTITLE0=Gotta Serve Somebody
TTITLE1=It Hurts Me Too
TTITLE2=Kokomo Dans Mes Rêves
TTITLE3=After Midnight
TTITLE4=Blues-Police Song
TTITLE5=In The Spirit
TTITLE6=Easy Road
TTITLE7=Freight Train
TTITLE8=My Slide Is Crying
TTITLE9=Wish You Were Here
TTITLE10=You Gotta Move
TTITLE11=Honest I Do
TTITLE12=Before You Accuse Me
TTITLE13=Mystery Train
TTITLE14=Ce Soir
EXTD=
EXTT0=
EXTT1=
EXTT2=
EXTT3=
EXTT4=
EXTT5=
EXTT6=
EXTT7=
EXTT8=
EXTT9=
EXTT10=
EXTT11=
EXTT12=
EXTT13=
EXTT14=
PLAYORDER=
